<?xml version="1.0"?>
<!DOCTYPE svg PUBLIC "-//W3C//DTD SVG 1.0//EN" "http://www.w3.org/TR/2001/REC-SVG-20010904/DTD/svg10.dtd">
<svg xmlns="http://www.w3.org/2000/svg" xmlns:xlink="http://www.w3.org/1999/xlink" xmlns:sodipodi="http://sodipodi.sourceforge.net/DTD/sodipodi-0.dtd" xmlns:inkscape="http://www.inkscape.org/namespaces/inkscape" xmlns:realworld="http://www.rw-designer.com/export-svg" width="9854px" height="3003px">
  <g inkscape:groupmode="layer" inkscape:label="layer 2">
    <rect fill="#ffffff" height="3003" width="9854" x="0" y="0" />
  </g>
  <g>
    <path d="M 1822.5 944.7L 1316.8 944.7C 1260.9 944.7 1215.6 899.4 1215.6 843.5C 1215.6 787.7 1260.9 742.4 1316.8 742.4L 1822.5 742.4C 1878.4 742.4 1923.7 787.7 1923.7 843.5C 1923.7 899.4 1878.4 944.7 1822.5 944.7 z M 457 540L 457 2310.2C 457 2393.6 525.3 2461.9 608.7 2461.9L 2530.6 2461.9C 2614 2461.9 2682.3 2393.6 2682.3 2310.2L 2682.3 540C 2682.3 540 457 540 457 540 z" fill="#eeeeee" fill-rule="evenodd" />
    <path d="M 1569.7 1349.2C 1230.5 1349.2 932.4 1524.9 761.4 1790.3L 761.4 2461.8L 1229.9 2461.8L 1569.7 1873.2L 2425.8 1873.2C 2266.7 1562.2 1943 1349.2 1569.7 1349.2 z" fill="#db4437" fill-rule="evenodd" />
    <path d="M 761.1 1790.7C 664.7 1940.5 608.7 2118.8 608.7 2310.2C 608.7 2361.8 612.8 2412.5 620.7 2461.9L 1152.5 2461.9C 1152.5 2461.9 761.1 1790.7 761.1 1790.7 z" fill="#0f9d58" fill-rule="evenodd" />
    <path d="M 2530.6 2310.2C 2530.6 2152.9 2492.8 2004.4 2425.8 1873.3L 1569.7 1873.3L 1909.5 2461.9L 2518.6 2461.9C 2526.5 2412.5 2530.6 2361.8 2530.6 2310.2 z" fill="#ffcd40" fill-rule="evenodd" />
    <path d="M 1569.7 1873.3C 1328.4 1873.3 1132.9 2068.9 1132.9 2310.2C 1132.9 2363.6 1142.5 2414.7 1160 2461.9L 1254.8 2461.9C 1232.6 2416 1220.2 2364.5 1220.2 2310.2C 1220.2 2117.1 1376.7 1960.7 1569.7 1960.7C 1762.7 1960.7 1919.2 2117.1 1919.2 2310.2C 1919.2 2364.6 1906.8 2416 1884.6 2461.9L 1979.4 2461.9C 1996.9 2414.6 2006.5 2363.5 2006.5 2310.2C 2006.5 2068.9 1810.9 1873.3 1569.7 1873.3 z" fill="#f1f1f1" fill-rule="evenodd" />
    <path d="M 1569.7 1960.7C 1376.7 1960.7 1220.2 2117.1 1220.2 2310.2C 1220.2 2364.6 1232.6 2416 1254.8 2461.9L 1884.6 2461.9C 1906.8 2416 1919.2 2364.5 1919.2 2310.2C 1919.1 2117.1 1762.7 1960.7 1569.7 1960.7 z" fill="#4285f4" fill-rule="evenodd" />
    <path d="M 456.29 540.306L 456.711 1501.07L 2682.54 1500.96L 2681.94 540.105C 2681.94 540.105 456.29 540.306 456.29 540.306 z M 1822.18 944.792L 1316.38 944.825C 1260.47 944.829 1215.14 899.543 1215.12 843.658C 1215.09 787.867 1260.37 742.579 1316.28 742.577L 1822.16 742.535C 1878.07 742.531 1923.41 787.817 1923.44 843.604C 1923.38 899.487 1878.09 944.779 1822.18 944.792 z" fill="#212121" fill-opacity="0.05" fill-rule="evenodd" />
    <rect fill="#212121" fill-opacity="0.02" height="12.6998" width="2225.3" x="457" y="1488.3" />
    <rect fill="#ffffff" fill-opacity="0.05" height="12.7001" width="2225.3" x="457" y="1501" />
    <path d="M 457 540L 457 552.7L 2682.3 552.7L 2682.3 540C 2682.3 540 457 540 457 540 z M 1822.5 944.7L 1316.8 944.7C 1263.1 944.7 1219.2 902.7 1216 849.9C 1215.7 852 1215.6 854.1 1215.6 856.2C 1215.6 912.1 1260.9 957.3 1316.8 957.3L 1822.5 957.3C 1878.4 957.3 1923.7 912.1 1923.7 856.2C 1923.7 854.1 1923.6 852 1923.3 849.9C 1920.1 902.6 1876.3 944.7 1822.5 944.7 z" fill="#212121" fill-opacity="0.02" fill-rule="evenodd" />
    <path d="M 2530.6 2449.2L 608.7 2449.2C 525.3 2449.2 457 2381 457 2297.5L 457 2310.2C 457 2393.6 525.3 2461.9 608.7 2461.9L 2530.6 2461.9C 2614 2461.9 2682.3 2393.6 2682.3 2310.2L 2682.3 2297.5C 2682.3 2381 2614 2449.2 2530.6 2449.2 z M 1316.8 742.3L 1822.5 742.3C 1876.2 742.3 1920.1 784.3 1923.3 837.1C 1923.4 835 1923.7 832.9 1923.7 830.8C 1923.7 774.9 1878.4 729.6 1822.5 729.6L 1316.8 729.6C 1260.9 729.6 1215.6 774.9 1215.6 830.8C 1215.6 832.9 1215.7 835 1216 837.1C 1219.2 784.3 1263 742.3 1316.8 742.3 z" fill="#231f20" fill-opacity="0.1" fill-rule="evenodd" />
  </g>
  <g inkscape:groupmode="layer" inkscape:label="layer 1">
    <text dominant-baseline="text-before-edge" fill="#5f6368" font-family="Google Sans Medium" font-size="600" text-anchor="start" x="3175" y="725">Available in the</text>
    <text dominant-baseline="text-before-edge" fill="#5f6368" font-family="Google Sans Medium" font-size="720" text-anchor="start" x="3120" y="1410">Chrome Web Store</text>
  </g>
</svg>
