<?xml version="1.0" encoding="UTF-8" standalone="no"?>
<!-- Created with Inkscape (http://www.inkscape.org/) -->

<svg
   width="63.118999mm"
   height="19.261999mm"
   viewBox="0 0 63.118999 19.261999"
   version="1.1"
   id="svg1"
   inkscape:version="1.4 (86a8ad7, 2024-10-11)"
   sodipodi:docname="Get it on Windows.svg"
   xmlns:inkscape="http://www.inkscape.org/namespaces/inkscape"
   xmlns:sodipodi="http://sodipodi.sourceforge.net/DTD/sodipodi-0.dtd"
   xmlns="http://www.w3.org/2000/svg"
   xmlns:svg="http://www.w3.org/2000/svg">
  <sodipodi:namedview
     id="namedview1"
     pagecolor="#ffffff"
     bordercolor="#000000"
     borderopacity="0.25"
     inkscape:showpageshadow="2"
     inkscape:pageopacity="0.0"
     inkscape:pagecheckerboard="0"
     inkscape:deskcolor="#d1d1d1"
     inkscape:document-units="mm"
     inkscape:zoom="4"
     inkscape:cx="10.75"
     inkscape:cy="10.125"
     inkscape:window-width="1920"
     inkscape:window-height="991"
     inkscape:window-x="-9"
     inkscape:window-y="-9"
     inkscape:window-maximized="1"
     inkscape:current-layer="layer1" />
  <defs
     id="defs1">
    <clipPath
       clipPathUnits="userSpaceOnUse"
       id="clipPath55">
      <path
         d="M 0,0 H 1152 V 648 H 0 Z"
         transform="translate(-654.38709,-263.1919)"
         id="path55" />
    </clipPath>
    <clipPath
       clipPathUnits="userSpaceOnUse"
       id="clipPath57">
      <path
         d="M 0,0 H 1152 V 648 H 0 Z"
         transform="translate(-663.00572,-266.0425)"
         id="path57" />
    </clipPath>
    <clipPath
       clipPathUnits="userSpaceOnUse"
       id="clipPath59">
      <path
         d="M 0,0 H 1152 V 648 H 0 Z"
         transform="translate(-668.43654,-262.5193)"
         id="path59" />
    </clipPath>
    <clipPath
       clipPathUnits="userSpaceOnUse"
       id="clipPath61">
      <path
         d="M 0,0 H 1152 V 648 H 0 Z"
         transform="translate(-675.18032,-273.07291)"
         id="path61" />
    </clipPath>
    <clipPath
       clipPathUnits="userSpaceOnUse"
       id="clipPath63">
      <path
         d="M 0,0 H 1152 V 648 H 0 Z"
         transform="translate(-681.01779,-262.5193)"
         id="path63" />
    </clipPath>
    <clipPath
       clipPathUnits="userSpaceOnUse"
       id="clipPath65">
      <path
         d="M 0,0 H 1152 V 648 H 0 Z"
         transform="translate(-693.36744,-266.38651)"
         id="path65" />
    </clipPath>
    <clipPath
       clipPathUnits="userSpaceOnUse"
       id="clipPath67">
      <path
         d="M 0,0 H 1152 V 648 H 0 Z"
         transform="translate(-701.69229,-262.44321)"
         id="path67" />
    </clipPath>
    <clipPath
       clipPathUnits="userSpaceOnUse"
       id="clipPath69">
      <path
         d="M 0,0 H 1152 V 648 H 0 Z"
         transform="translate(-665.70272,-255.58581)"
         id="path69" />
    </clipPath>
    <clipPath
       clipPathUnits="userSpaceOnUse"
       id="clipPath71">
      <path
         d="M 0,0 H 1152 V 648 H 0 Z"
         transform="translate(-669.50979,-255.10761)"
         id="path71" />
    </clipPath>
    <clipPath
       clipPathUnits="userSpaceOnUse"
       id="clipPath73">
      <path
         d="M 0,0 H 1152 V 648 H 0 Z"
         transform="translate(-681.46014,-239.6248)"
         id="path73" />
    </clipPath>
    <clipPath
       clipPathUnits="userSpaceOnUse"
       id="clipPath75">
      <path
         d="M 0,0 H 1152 V 648 H 0 Z"
         transform="translate(-694.37334,-239.6248)"
         id="path75" />
    </clipPath>
    <clipPath
       clipPathUnits="userSpaceOnUse"
       id="clipPath77">
      <path
         d="M 0,0 H 1152 V 648 H 0 Z"
         transform="translate(-707.65524,-245.3689)"
         id="path77" />
    </clipPath>
    <clipPath
       clipPathUnits="userSpaceOnUse"
       id="clipPath79">
      <path
         d="M 0,0 H 1152 V 648 H 0 Z"
         transform="translate(-723.98829,-251.02201)"
         id="path79" />
    </clipPath>
    <clipPath
       clipPathUnits="userSpaceOnUse"
       id="clipPath81">
      <path
         d="M 0,0 H 1152 V 648 H 0 Z"
         transform="translate(-732.21294,-242.67451)"
         id="path81" />
    </clipPath>
    <clipPath
       clipPathUnits="userSpaceOnUse"
       id="clipPath83">
      <path
         d="M 0,0 H 1152 V 648 H 0 Z"
         transform="translate(-741.08672,-239.6248)"
         id="path83" />
    </clipPath>
    <clipPath
       clipPathUnits="userSpaceOnUse"
       id="clipPath85">
      <path
         d="M 0,0 H 1152 V 648 H 0 Z"
         transform="translate(-756.48729,-247.67181)"
         id="path85" />
    </clipPath>
  </defs>
  <g
     inkscape:label="Layer 1"
     inkscape:groupmode="layer"
     id="layer1">
    <path
       id="path52"
       d="M 63.118644,19.261666 H 0 V 0 h 63.118644 z"
       style="fill:#0075c9;fill-opacity:1;fill-rule:nonzero;stroke:none;stroke-width:0.352778" />
    <path
       id="path53"
       d="M 8.996666,14.42335 4.188658,13.749544 V 9.701067 h 4.808008 z m 0,-5.084586 H 4.188658 V 5.512184 L 8.996666,4.836967 Z m 6.552141,6.006747 -6.196541,-0.884414 v -4.76003 h 6.196541 z m 0,-6.006747 H 9.352266 V 4.799925 l 6.196541,-0.884061 z"
       style="fill:#ffffff;fill-opacity:1;fill-rule:nonzero;stroke:none;stroke-width:0.352778" />
    <path
       id="path54"
       d="m 0,0 c -1.094,-0.626 -2.309,-0.94 -3.646,-0.94 -1.017,0 -1.925,0.232 -2.723,0.696 -0.797,0.463 -1.411,1.118 -1.842,1.964 -0.43,0.845 -0.645,1.801 -0.645,2.865 0,1.681 0.529,3.07 1.588,4.165 1.058,1.096 2.412,1.643 4.063,1.643 1.185,0 2.18,-0.193 2.984,-0.581 V 8.391 C -1.101,8.957 -2.145,9.239 -3.35,9.239 -4.144,9.239 -4.86,9.047 -5.495,8.662 -6.131,8.277 -6.627,7.734 -6.984,7.03 -7.34,6.328 -7.519,5.546 -7.519,4.685 c 0,-1.381 0.36,-2.47 1.082,-3.267 0.722,-0.797 1.706,-1.196 2.951,-1.196 0.845,0 1.582,0.173 2.21,0.519 V 3.806 H -3.661 V 4.967 H 0 Z"
       style="fill:#ffffff;fill-opacity:1;fill-rule:nonzero;stroke:none"
       transform="matrix(0.35277776,0,0,-0.35277776,22.534072,6.987855)"
       clip-path="url(#clipPath55)" />
    <path
       id="path56"
       d="m 0,0 h -5.491 c 0.02,-0.882 0.252,-1.555 0.695,-2.021 0.443,-0.466 1.057,-0.699 1.842,-0.699 0.881,0 1.683,0.285 2.408,0.855 v -1.169 c -0.679,-0.504 -1.58,-0.756 -2.705,-0.756 -1.108,0 -1.974,0.36 -2.597,1.081 -0.623,0.721 -0.934,1.718 -0.934,2.992 0,0.774 0.156,1.481 0.467,2.12 0.311,0.639 0.741,1.135 1.287,1.487 0.547,0.351 1.155,0.527 1.824,0.527 1.007,0 1.793,-0.33 2.357,-0.99 C -0.282,2.768 0,1.844 0,0.657 Z m -1.276,1.062 c -0.01,0.723 -0.183,1.285 -0.52,1.685 -0.337,0.4 -0.811,0.6 -1.424,0.6 -0.577,0 -1.071,-0.209 -1.481,-0.627 -0.41,-0.417 -0.668,-0.97 -0.774,-1.658 z"
       style="fill:#ffffff;fill-opacity:1;fill-rule:nonzero;stroke:none"
       transform="matrix(0.35277776,0,0,-0.35277776,25.574531,5.982226)"
       clip-path="url(#clipPath57)" />
    <path
       id="path58"
       d="m 0,0 c -0.299,-0.168 -0.689,-0.252 -1.169,-0.252 -1.358,0 -2.036,0.77 -2.036,2.308 v 4.631 h -1.337 v 1.062 h 1.337 v 1.91 l 1.245,0.406 V 7.749 H 0 V 6.687 H -1.96 V 2.27 c 0,-0.525 0.089,-0.898 0.266,-1.12 0.178,-0.221 0.474,-0.332 0.889,-0.332 0.309,0 0.577,0.084 0.805,0.252 z"
       style="fill:#ffffff;fill-opacity:1;fill-rule:nonzero;stroke:none"
       transform="matrix(0.35277776,0,0,-0.35277776,27.490405,7.225133)"
       clip-path="url(#clipPath59)" />
    <path
       id="path60"
       d="m 0,0 c 0,-0.234 -0.08,-0.429 -0.242,-0.584 -0.163,-0.156 -0.355,-0.234 -0.578,-0.234 -0.227,0 -0.42,0.075 -0.577,0.226 -0.156,0.15 -0.235,0.348 -0.235,0.592 0,0.219 0.077,0.409 0.231,0.569 0.155,0.161 0.348,0.241 0.581,0.241 0.234,0 0.429,-0.079 0.585,-0.237 C -0.077,0.415 0,0.224 0,0 m -0.212,-10.63 h -1.245 v 7.825 h 1.245 z"
       style="fill:#ffffff;fill-opacity:1;fill-rule:nonzero;stroke:none"
       transform="matrix(0.35277776,0,0,-0.35277776,29.869459,3.502057)"
       clip-path="url(#clipPath61)" />
    <path
       id="path62"
       d="m 0,0 c -0.299,-0.168 -0.689,-0.252 -1.17,-0.252 -1.357,0 -2.036,0.77 -2.036,2.308 v 4.631 h -1.337 v 1.062 h 1.337 v 1.91 l 1.246,0.406 V 7.749 H 0 V 6.687 H -1.96 V 2.27 c 0,-0.525 0.089,-0.898 0.266,-1.12 0.177,-0.221 0.473,-0.332 0.888,-0.332 0.309,0 0.578,0.084 0.806,0.252 z"
       style="fill:#ffffff;fill-opacity:1;fill-rule:nonzero;stroke:none"
       transform="matrix(0.35277776,0,0,-0.35277776,31.928791,7.225133)"
       clip-path="url(#clipPath63)" />
    <path
       id="path64"
       d="m 0,0 c 0,-1.243 -0.351,-2.243 -1.053,-3 -0.701,-0.756 -1.641,-1.134 -2.821,-1.134 -1.15,0 -2.068,0.368 -2.753,1.104 -0.687,0.736 -1.03,1.705 -1.03,2.908 0,1.293 0.353,2.316 1.057,3.067 0.702,0.753 1.672,1.128 2.908,1.128 1.155,0 2.058,-0.363 2.711,-1.089 C -0.327,2.258 0,1.263 0,0 m -1.277,-0.046 c 0,0.983 -0.216,1.737 -0.649,2.262 -0.433,0.524 -1.051,0.787 -1.857,0.787 -0.8,0 -1.433,-0.269 -1.898,-0.806 -0.466,-0.538 -0.699,-1.295 -0.699,-2.274 0,-0.937 0.234,-1.67 0.702,-2.197 0.468,-0.527 1.1,-0.79 1.895,-0.79 0.809,0 1.431,0.259 1.861,0.779 0.43,0.52 0.645,1.266 0.645,2.239"
       style="fill:#ffffff;fill-opacity:1;fill-rule:nonzero;stroke:none"
       transform="matrix(0.35277776,0,0,-0.35277776,36.285473,5.86087)"
       clip-path="url(#clipPath65)" />
    <path
       id="path66"
       d="m 0,0 h -1.246 v 4.463 c 0,1.656 -0.603,2.483 -1.808,2.483 -0.613,0 -1.124,-0.233 -1.537,-0.699 -0.413,-0.466 -0.62,-1.061 -0.62,-1.784 V 0 h -1.245 v 7.825 h 1.245 V 6.526 h 0.031 c 0.582,0.993 1.433,1.49 2.551,1.49 0.856,0 1.508,-0.28 1.957,-0.84 C -0.224,6.615 0,5.82 0,4.792 Z"
       style="fill:#ffffff;fill-opacity:1;fill-rule:nonzero;stroke:none"
       transform="matrix(0.35277776,0,0,-0.35277776,39.222295,7.251978)"
       clip-path="url(#clipPath67)" />
    <path
       id="path68"
       d="m 0,0 -4.48,-15.961 h -2.179 l -3.263,11.676 c -0.126,0.437 -0.207,0.976 -0.244,1.614 h -0.044 c -0.059,-0.549 -0.159,-1.079 -0.299,-1.592 l -3.285,-11.698 h -2.158 L -20.587,0 h 2.036 l 3.374,-12.243 c 0.14,-0.543 0.232,-1.076 0.276,-1.603 h 0.045 c 0.037,0.452 0.147,0.987 0.332,1.603 L -11.006,0 h 1.792 l 3.351,-12.333 c 0.126,-0.459 0.214,-0.952 0.266,-1.48 h 0.044 c 0.037,0.386 0.136,0.894 0.299,1.526 L -2.013,0 Z"
       style="fill:#ffffff;fill-opacity:1;fill-rule:nonzero;stroke:none"
       transform="matrix(0.35277776,0,0,-0.35277776,26.525973,9.671116)"
       clip-path="url(#clipPath69)" />
    <path
       id="path70"
       d="m 0,0 c 0,-0.341 -0.117,-0.625 -0.354,-0.852 -0.236,-0.227 -0.516,-0.339 -0.84,-0.339 -0.332,0 -0.613,0.11 -0.841,0.329 -0.229,0.218 -0.343,0.505 -0.343,0.862 0,0.319 0.113,0.595 0.338,0.829 0.224,0.234 0.506,0.351 0.846,0.351 0.338,0 0.623,-0.115 0.851,-0.345 C -0.114,0.605 0,0.326 0,0 m -0.309,-15.483 h -1.815 v 11.397 h 1.815 z"
       style="fill:#ffffff;fill-opacity:1;fill-rule:nonzero;stroke:none"
       transform="matrix(0.35277776,0,0,-0.35277776,27.869024,9.839814)"
       clip-path="url(#clipPath71)" />
    <path
       id="path72"
       d="m 0,0 h -1.814 v 6.5 c 0,2.411 -0.878,3.617 -2.633,3.617 -0.892,0 -1.639,-0.339 -2.24,-1.017 C -7.288,8.42 -7.589,7.554 -7.589,6.5 V 0 h -1.814 v 11.397 h 1.814 V 9.506 h 0.044 c 0.849,1.446 2.087,2.17 3.718,2.17 1.245,0 2.195,-0.408 2.848,-1.225 C -0.326,9.635 0,8.477 0,6.978 Z"
       style="fill:#ffffff;fill-opacity:1;fill-rule:nonzero;stroke:none"
       transform="matrix(0.35277776,0,0,-0.35277776,32.084842,15.301804)"
       clip-path="url(#clipPath73)" />
    <path
       id="path74"
       d="m 0,0 h -1.814 v 1.937 h -0.044 c -0.84,-1.477 -2.139,-2.215 -3.894,-2.215 -1.431,0 -2.57,0.517 -3.418,1.552 -0.849,1.036 -1.272,2.417 -1.272,4.147 0,1.885 0.47,3.398 1.411,4.54 0.94,1.144 2.198,1.715 3.777,1.715 1.548,0 2.681,-0.615 3.396,-1.848 h 0.044 v 7.046 H 0 Z m -1.814,5.154 v 1.68 c 0,0.942 -0.311,1.726 -0.935,2.348 -0.623,0.624 -1.38,0.935 -2.272,0.935 -1.093,0 -1.959,-0.406 -2.6,-1.218 -0.642,-0.813 -0.963,-1.939 -0.963,-3.378 0,-1.306 0.302,-2.339 0.907,-3.1 0.605,-0.761 1.42,-1.141 2.445,-1.141 0.996,0 1.814,0.363 2.456,1.091 0.641,0.727 0.962,1.654 0.962,2.783"
       style="fill:#ffffff;fill-opacity:1;fill-rule:nonzero;stroke:none"
       transform="matrix(0.35277776,0,0,-0.35277776,36.640332,15.301804)"
       clip-path="url(#clipPath75)" />
    <path
       id="path76"
       d="m 0,0 c 0,-1.811 -0.51,-3.267 -1.532,-4.37 -1.021,-1.101 -2.391,-1.652 -4.109,-1.652 -1.674,0 -3.011,0.536 -4.01,1.608 -0.999,1.072 -1.499,2.484 -1.499,4.235 0,1.885 0.512,3.374 1.538,4.47 1.024,1.094 2.436,1.641 4.237,1.641 1.68,0 2.997,-0.529 3.948,-1.587 C -0.475,3.289 0,1.839 0,0 m -1.858,-0.067 c 0,1.432 -0.315,2.53 -0.946,3.294 -0.63,0.764 -1.532,1.146 -2.705,1.146 -1.165,0 -2.086,-0.391 -2.765,-1.174 -0.679,-0.783 -1.018,-1.886 -1.018,-3.311 0,-1.365 0.341,-2.431 1.023,-3.199 0.683,-0.769 1.602,-1.153 2.76,-1.153 1.181,0 2.084,0.379 2.711,1.135 0.626,0.758 0.94,1.843 0.94,3.262"
       style="fill:#ffffff;fill-opacity:1;fill-rule:nonzero;stroke:none"
       transform="matrix(0.35277776,0,0,-0.35277776,41.325891,13.275413)"
       clip-path="url(#clipPath77)" />
    <path
       id="path78"
       d="m 0,0 -3.397,-11.397 h -1.881 l -2.334,8.159 c -0.081,0.282 -0.14,0.63 -0.176,1.046 h -0.045 c -0.022,-0.261 -0.099,-0.601 -0.231,-1.025 l -2.534,-8.18 h -1.814 L -15.831,0 h 1.902 l 2.335,-8.571 c 0.074,-0.296 0.126,-0.637 0.155,-1.023 h 0.088 c 0.015,0.282 0.085,0.631 0.21,1.046 L -8.541,0 h 1.66 l 2.357,-8.592 c 0.073,-0.29 0.124,-0.63 0.154,-1.025 h 0.089 c 0.014,0.357 0.073,0.698 0.176,1.025 L -1.793,0 Z"
       style="fill:#ffffff;fill-opacity:1;fill-rule:nonzero;stroke:none"
       transform="matrix(0.35277776,0,0,-0.35277776,47.087828,11.281124)"
       clip-path="url(#clipPath79)" />
    <path
       id="path80"
       d="m 0,0 c 0,-0.987 -0.378,-1.789 -1.134,-2.404 -0.756,-0.616 -1.761,-0.923 -3.015,-0.923 -1.069,0 -2.005,0.229 -2.809,0.689 v 1.959 c 0.892,-0.728 1.873,-1.091 2.942,-1.091 1.438,0 2.158,0.53 2.158,1.592 0,0.431 -0.14,0.781 -0.421,1.052 -0.28,0.271 -0.918,0.635 -1.914,1.096 -1.003,0.43 -1.711,0.893 -2.124,1.386 -0.413,0.494 -0.619,1.148 -0.619,1.965 0,0.941 0.376,1.728 1.128,2.359 0.752,0.63 1.707,0.947 2.865,0.947 0.893,0 1.701,-0.179 2.423,-0.535 V 6.256 C -1.257,6.797 -2.113,7.068 -3.087,7.068 -3.684,7.068 -4.165,6.92 -4.53,6.623 -4.896,6.326 -5.077,5.944 -5.077,5.477 c 0,-0.505 0.14,-0.892 0.42,-1.164 C -4.377,4.042 -3.798,3.722 -2.92,3.35 -1.844,2.891 -1.087,2.409 -0.653,1.904 -0.218,1.399 0,0.764 0,0"
       style="fill:#ffffff;fill-opacity:1;fill-rule:nonzero;stroke:none"
       transform="matrix(0.35277776,0,0,-0.35277776,49.989302,14.225936)"
       clip-path="url(#clipPath81)" />
    <path
       id="path82"
       d="m 0,0 v 13.791 c -0.318,-0.319 -0.854,-0.676 -1.61,-1.069 -0.756,-0.394 -1.444,-0.668 -2.064,-0.824 v 1.849 c 0.798,0.222 1.657,0.582 2.579,1.079 0.921,0.497 1.663,0.994 2.222,1.492 H 1.814 V 0 Z"
       style="fill:#ffffff;fill-opacity:1;fill-rule:nonzero;stroke:none"
       transform="matrix(0.35277776,0,0,-0.35277776,53.119772,15.301804)"
       clip-path="url(#clipPath83)" />
    <path
       id="path84"
       d="m 0,0 c 0,-2.634 -0.461,-4.679 -1.383,-6.138 -0.921,-1.459 -2.234,-2.187 -3.938,-2.187 -1.593,0 -2.826,0.685 -3.7,2.059 -0.875,1.373 -1.312,3.331 -1.312,5.877 0,2.775 0.455,4.897 1.362,6.367 0.907,1.468 2.234,2.203 3.982,2.203 C -1.663,8.181 0,5.454 0,0 m -1.858,-0.178 c 0,4.542 -1.074,6.812 -3.219,6.812 -2.265,0 -3.397,-2.311 -3.397,-6.935 0,-4.31 1.11,-6.466 3.33,-6.466 2.19,0 3.286,2.196 3.286,6.589"
       style="fill:#ffffff;fill-opacity:1;fill-rule:nonzero;stroke:none"
       transform="matrix(0.35277776,0,0,-0.35277776,58.552753,12.462999)"
       clip-path="url(#clipPath85)" />
  </g>
</svg>
