<?xml version="1.0" encoding="UTF-8" standalone="no"?>
<!-- Created with Inkscape (http://www.inkscape.org/) -->

<svg
   width="53.34mm"
   height="19.261999mm"
   viewBox="0 0 53.34 19.261999"
   version="1.1"
   id="svg1"
   inkscape:version="1.4 (86a8ad7, 2024-10-11)"
   sodipodi:docname="Get it from Microsoft.svg"
   xmlns:inkscape="http://www.inkscape.org/namespaces/inkscape"
   xmlns:sodipodi="http://sodipodi.sourceforge.net/DTD/sodipodi-0.dtd"
   xmlns="http://www.w3.org/2000/svg"
   xmlns:svg="http://www.w3.org/2000/svg">
  <sodipodi:namedview
     id="namedview1"
     pagecolor="#ffffff"
     bordercolor="#000000"
     borderopacity="0.25"
     inkscape:showpageshadow="2"
     inkscape:pageopacity="0.0"
     inkscape:pagecheckerboard="0"
     inkscape:deskcolor="#d1d1d1"
     inkscape:document-units="mm"
     inkscape:zoom="5.6568543"
     inkscape:cx="62.57895"
     inkscape:cy="30.317203"
     inkscape:window-width="1920"
     inkscape:window-height="991"
     inkscape:window-x="-9"
     inkscape:window-y="-9"
     inkscape:window-maximized="1"
     inkscape:current-layer="layer1" />
  <defs
     id="defs1">
    <clipPath
       clipPathUnits="userSpaceOnUse"
       id="clipPath20">
      <path
         d="M 0,0 H 1152 V 648 H 0 Z"
         id="path20" />
    </clipPath>
    <clipPath
       clipPathUnits="userSpaceOnUse"
       id="clipPath22">
      <path
         d="M 0,0 H 1152 V 648 H 0 Z"
         transform="translate(-480.27511,-242.272)"
         id="path22" />
    </clipPath>
    <clipPath
       clipPathUnits="userSpaceOnUse"
       id="clipPath24">
      <path
         d="M 0,0 H 1152 V 648 H 0 Z"
         transform="translate(-490.23129,-251.5954)"
         id="path24" />
    </clipPath>
    <clipPath
       clipPathUnits="userSpaceOnUse"
       id="clipPath26">
      <path
         d="M 0,0 H 1152 V 648 H 0 Z"
         transform="translate(-494.05209,-245.8231)"
         id="path26" />
    </clipPath>
    <clipPath
       clipPathUnits="userSpaceOnUse"
       id="clipPath28">
      <path
         d="M 0,0 H 1152 V 648 H 0 Z"
         transform="translate(-506.54049,-248.5162)"
         id="path28" />
    </clipPath>
    <clipPath
       clipPathUnits="userSpaceOnUse"
       id="clipPath30">
      <path
         d="M 0,0 H 1152 V 648 H 0 Z"
         transform="translate(-515.11321,-245.8231)"
         id="path30" />
    </clipPath>
    <clipPath
       clipPathUnits="userSpaceOnUse"
       id="clipPath32">
      <path
         d="M 0,0 H 1152 V 648 H 0 Z"
         transform="translate(-532.33119,-249.28881)"
         id="path32" />
    </clipPath>
    <clipPath
       clipPathUnits="userSpaceOnUse"
       id="clipPath35">
      <path
         d="M 0,0 H 1152 V 648 H 0 Z"
         transform="translate(-457.65991,-262.43071)"
         id="path35" />
    </clipPath>
    <clipPath
       clipPathUnits="userSpaceOnUse"
       id="clipPath37">
      <path
         d="M 0,0 H 1152 V 648 H 0 Z"
         transform="translate(-463.88079,-265.73751)"
         id="path37" />
    </clipPath>
    <clipPath
       clipPathUnits="userSpaceOnUse"
       id="clipPath39">
      <path
         d="M 0,0 H 1152 V 648 H 0 Z"
         transform="translate(-470.08261,-261.86671)"
         id="path39" />
    </clipPath>
    <clipPath
       clipPathUnits="userSpaceOnUse"
       id="clipPath41">
      <path
         d="M 0,0 H 1152 V 648 H 0 Z"
         id="path41" />
    </clipPath>
    <clipPath
       clipPathUnits="userSpaceOnUse"
       id="clipPath43">
      <path
         d="M 0,0 H 1152 V 648 H 0 Z"
         transform="translate(-481.70949,-261.86671)"
         id="path43" />
    </clipPath>
    <clipPath
       clipPathUnits="userSpaceOnUse"
       id="clipPath45">
      <path
         d="M 0,0 H 1152 V 648 H 0 Z"
         transform="translate(-490.01101,-270.4477)"
         id="path45" />
    </clipPath>
    <clipPath
       clipPathUnits="userSpaceOnUse"
       id="clipPath47">
      <path
         d="M 0,0 H 1152 V 648 H 0 Z"
         transform="translate(-494.68779,-267.109)"
         id="path47" />
    </clipPath>
    <clipPath
       clipPathUnits="userSpaceOnUse"
       id="clipPath49">
      <path
         d="M 0,0 H 1152 V 648 H 0 Z"
         transform="translate(-500.62089,-265.08381)"
         id="path49" />
    </clipPath>
    <clipPath
       clipPathUnits="userSpaceOnUse"
       id="clipPath51">
      <path
         d="M 0,0 H 1152 V 648 H 0 Z"
         transform="translate(-513.26281,-261.8026)"
         id="path51" />
    </clipPath>
  </defs>
  <g
     inkscape:label="Layer 1"
     inkscape:groupmode="layer"
     id="layer1">
    <path
       id="path13"
       d="M 0.138994,0.139 H 53.201356 V 19.12303 H 0.138994 Z"
       style="fill:#000000;fill-opacity:1;fill-rule:nonzero;stroke:none;stroke-width:0.352778" />
    <path
       id="path14"
       d="M 53.339996,0 H 0 v 19.26167 h 53.339996 z m -0.27764,18.98403 H 0.277989 V 0.27799 h 52.784367 z"
       style="fill:#d2d2d2;fill-opacity:1;fill-rule:nonzero;stroke:none;stroke-width:0.352778" />
    <path
       id="path15"
       d="M 9.5235882,9.36625 H 4.389966 V 4.23263 h 5.1336222 z"
       style="fill:#e75300;fill-opacity:1;fill-rule:nonzero;stroke:none;stroke-width:0.352778" />
    <path
       id="path16"
       d="M 15.191315,9.36625 H 10.057693 V 4.23263 h 5.133622 z"
       style="fill:#82bc00;fill-opacity:1;fill-rule:nonzero;stroke:none;stroke-width:0.352778" />
    <path
       id="path17"
       d="M 9.5235882,15.03398 H 4.389966 V 9.9003607 h 5.1336222 z"
       style="fill:#00aeef;fill-opacity:1;fill-rule:nonzero;stroke:none;stroke-width:0.352778" />
    <path
       id="path18"
       d="M 15.191315,15.03398 H 10.057693 V 9.9003607 h 5.133622 z"
       style="fill:#ffb900;fill-opacity:1;fill-rule:nonzero;stroke:none;stroke-width:0.352778" />
    <path
       id="path19"
       d="m 472.4,240.384 h -2.596 v 11.029 h 2.596 z m -2.865,14.216 c 0,0.428 0.156,0.788 0.467,1.078 0.311,0.29 0.681,0.435 1.11,0.435 0.458,0 0.837,-0.149 1.138,-0.446 0.3,-0.297 0.45,-0.653 0.45,-1.067 0,-0.423 -0.153,-0.776 -0.461,-1.063 -0.308,-0.286 -0.683,-0.428 -1.127,-0.428 -0.443,0 -0.817,0.144 -1.121,0.434 -0.304,0.29 -0.456,0.642 -0.456,1.057"
       style="fill:#ffffff;fill-opacity:1;fill-rule:nonzero;stroke:none"
       transform="matrix(0.35277776,0,0,-0.35277776,-140.54913,99.836117)"
       clip-path="url(#clipPath20)" />
    <path
       id="path21"
       d="M 0,0 C 0.386,0 0.812,0.089 1.277,0.268 1.741,0.447 2.171,0.683 2.564,0.976 V -1.437 C 2.149,-1.674 1.679,-1.853 1.153,-1.974 0.628,-2.096 0.05,-2.156 -0.58,-2.156 c -1.623,0 -2.943,0.513 -3.959,1.539 -1.016,1.027 -1.523,2.337 -1.523,3.932 0,1.774 0.519,3.235 1.556,4.383 1.037,1.148 2.507,1.722 4.409,1.722 C 0.39,9.42 0.881,9.357 1.379,9.232 1.876,9.107 2.271,8.962 2.564,8.798 V 6.308 C 2.164,6.602 1.754,6.829 1.336,6.99 0.917,7.151 0.49,7.231 0.054,7.231 -0.969,7.231 -1.796,6.899 -2.425,6.233 -3.054,5.569 -3.369,4.671 -3.369,3.541 -3.369,2.425 -3.067,1.556 -2.462,0.933 -1.858,0.311 -1.037,0 0,0"
       style="fill:#ffffff;fill-opacity:1;fill-rule:nonzero;stroke:none"
       transform="matrix(0.35277776,0,0,-0.35277776,28.881246,14.36793)"
       clip-path="url(#clipPath22)" />
    <path
       id="path23"
       d="M 0,0 C 0.207,0 0.394,-0.014 0.558,-0.043 0.722,-0.071 0.862,-0.107 0.977,-0.15 v -2.629 c -0.137,0.1 -0.335,0.195 -0.596,0.285 -0.261,0.089 -0.578,0.134 -0.95,0.134 -0.636,0 -1.174,-0.269 -1.614,-0.805 -0.44,-0.536 -0.66,-1.363 -0.66,-2.478 v -5.569 H -5.44 v 11.03 h 2.597 V -1.92 H -2.8 c 0.236,0.601 0.593,1.07 1.073,1.411 C -1.248,-0.17 -0.672,0 0,0"
       style="fill:#ffffff;fill-opacity:1;fill-rule:nonzero;stroke:none"
       transform="matrix(0.35277776,0,0,-0.35277776,32.393566,11.07884)"
       clip-path="url(#clipPath24)" />
    <path
       id="path25"
       d="m 0,0 c 0,-1.151 0.261,-2.031 0.783,-2.639 0.522,-0.608 1.27,-0.912 2.243,-0.912 0.944,0 1.663,0.304 2.156,0.912 0.494,0.608 0.741,1.509 0.741,2.704 0,1.187 -0.256,2.083 -0.768,2.688 C 4.644,3.357 3.927,3.659 3.004,3.659 2.053,3.659 1.315,3.342 0.789,2.709 0.263,2.076 0,1.173 0,0 m -2.704,-0.086 c 0,1.824 0.515,3.269 1.545,4.335 1.03,1.066 2.46,1.598 4.292,1.598 1.724,0 3.07,-0.513 4.04,-1.539 0.969,-1.027 1.453,-2.413 1.453,-4.158 0,-1.788 -0.515,-3.211 -1.545,-4.27 -1.03,-1.059 -2.432,-1.587 -4.206,-1.587 -1.709,0 -3.067,0.502 -4.071,1.506 -1.005,1.005 -1.508,2.377 -1.508,4.115"
       style="fill:#ffffff;fill-opacity:1;fill-rule:nonzero;stroke:none"
       transform="matrix(0.35277776,0,0,-0.35277776,33.741466,13.11518)"
       clip-path="url(#clipPath26)" />
    <path
       id="path27"
       d="m 0,0 c 0,-0.372 0.118,-0.663 0.354,-0.875 0.236,-0.21 0.758,-0.477 1.566,-0.799 1.037,-0.415 1.765,-0.881 2.184,-1.4 0.418,-0.519 0.627,-1.146 0.627,-1.883 0,-1.037 -0.398,-1.87 -1.196,-2.5 C 2.737,-8.086 1.659,-8.401 0.3,-8.401 c -0.458,0 -0.964,0.056 -1.518,0.166 -0.554,0.111 -1.024,0.253 -1.411,0.424 v 2.554 c 0.472,-0.33 0.98,-0.59 1.524,-0.783 0.543,-0.193 1.037,-0.29 1.48,-0.29 0.587,0 1.02,0.082 1.299,0.247 0.278,0.164 0.418,0.44 0.418,0.826 0,0.358 -0.145,0.66 -0.435,0.906 -0.289,0.247 -0.838,0.532 -1.647,0.853 -0.958,0.401 -1.637,0.852 -2.038,1.352 -0.401,0.501 -0.601,1.137 -0.601,1.91 0,0.994 0.396,1.812 1.186,2.451 0.79,0.64 1.815,0.961 3.074,0.961 0.386,0 0.819,-0.043 1.298,-0.129 C 3.408,2.962 3.809,2.85 4.131,2.714 V 0.247 C 3.787,0.476 3.387,0.672 2.929,0.837 2.471,1.002 2.017,1.084 1.567,1.084 1.073,1.084 0.688,0.987 0.413,0.794 0.138,0.601 0,0.336 0,0"
       style="fill:#ffffff;fill-opacity:1;fill-rule:nonzero;stroke:none"
       transform="matrix(0.35277776,0,0,-0.35277776,38.147096,12.16512)"
       clip-path="url(#clipPath28)" />
    <path
       id="path29"
       d="m 0,0 c 0,-1.151 0.261,-2.031 0.783,-2.639 0.522,-0.608 1.27,-0.912 2.243,-0.912 0.944,0 1.663,0.304 2.156,0.912 0.494,0.608 0.741,1.509 0.741,2.704 0,1.187 -0.256,2.083 -0.768,2.688 C 4.644,3.357 3.927,3.659 3.004,3.659 2.053,3.659 1.314,3.342 0.789,2.709 0.263,2.076 0,1.173 0,0 m -2.704,-0.086 c 0,1.824 0.515,3.269 1.545,4.335 1.03,1.066 2.461,1.598 4.292,1.598 1.724,0 3.07,-0.513 4.04,-1.539 0.969,-1.027 1.453,-2.413 1.453,-4.158 0,-1.788 -0.515,-3.211 -1.545,-4.27 -1.03,-1.059 -2.432,-1.587 -4.206,-1.587 -1.709,0 -3.067,0.502 -4.071,1.506 -1.005,1.005 -1.508,2.377 -1.508,4.115"
       style="fill:#ffffff;fill-opacity:1;fill-rule:nonzero;stroke:none"
       transform="matrix(0.35277776,0,0,-0.35277776,41.171356,13.11518)"
       clip-path="url(#clipPath30)" />
    <path
       id="path31"
       d="m 0,0 v -5.665 c 0,-1.173 0.273,-2.051 0.821,-2.634 0.547,-0.583 1.368,-0.874 2.462,-0.874 0.372,0 0.749,0.039 1.132,0.118 0.382,0.079 0.656,0.164 0.821,0.257 v 2.146 C 5.078,-6.753 4.894,-6.838 4.683,-6.91 4.472,-6.981 4.291,-7.017 4.141,-7.017 c -0.529,0 -0.917,0.139 -1.164,0.419 -0.247,0.279 -0.37,0.758 -0.37,1.437 V 0 H 5.236 V 2.124 H 2.607 V 5.396 L 0,4.603 V 2.124 h -3.867 v 1.331 c 0,0.665 0.146,1.168 0.44,1.507 0.293,0.34 0.712,0.51 1.256,0.51 0.278,0 0.525,-0.036 0.739,-0.108 0.215,-0.071 0.365,-0.132 0.451,-0.182 v 2.243 c -0.186,0.064 -0.4,0.112 -0.643,0.144 -0.244,0.032 -0.523,0.049 -0.838,0.049 -1.18,0 -2.147,-0.37 -2.901,-1.111 -0.755,-0.74 -1.132,-1.69 -1.132,-2.848 V 2.124 H -8.341 V 0 h 1.846 v -8.905 h 2.628 V 0 Z"
       style="fill:#ffffff;fill-opacity:1;fill-rule:nonzero;stroke:none"
       transform="matrix(0.35277776,0,0,-0.35277776,47.245476,11.89256)"
       clip-path="url(#clipPath32)" />
    <path
       id="path33"
       d="M 24.305626,9.6052905 V 15.03525 h -0.94297 v -4.25627 h -0.0148 l -1.685221,4.25627 h -0.624789 l -1.726848,-4.25627 h -0.01129 v 4.25627 H 18.428699 V 9.6052905 h 1.351845 l 1.559983,4.0251895 h 0.02293 l 1.647119,-4.0251895 z"
       style="fill:#ffffff;fill-opacity:1;fill-rule:nonzero;stroke:none;stroke-width:0.352778" />
    <path
       id="path34"
       d="m 0,0 c -0.919,-0.526 -1.964,-0.788 -3.135,-0.788 -0.883,0 -1.669,0.194 -2.355,0.583 -0.685,0.389 -1.212,0.937 -1.579,1.644 -0.368,0.707 -0.552,1.507 -0.552,2.399 0,0.945 0.201,1.786 0.603,2.522 0.401,0.737 0.973,1.314 1.714,1.731 0.741,0.417 1.584,0.625 2.528,0.625 0.475,0 0.945,-0.045 1.41,-0.135 C -0.9,8.492 -0.52,8.378 -0.225,8.241 V 6.857 c -0.701,0.466 -1.587,0.699 -2.659,0.699 -0.641,0 -1.22,-0.155 -1.738,-0.465 C -5.138,6.781 -5.539,6.35 -5.823,5.797 -6.107,5.243 -6.249,4.621 -6.249,3.929 c 0,-1.102 0.287,-1.971 0.861,-2.605 0.576,-0.635 1.37,-0.952 2.381,-0.952 0.641,0 1.209,0.128 1.706,0.384 V 3.121 H -3.257 V 4.268 H 0 Z"
       style="fill:#ffffff;fill-opacity:1;fill-rule:nonzero;stroke:none"
       transform="matrix(0.35277776,0,0,-0.35277776,20.903111,7.25639)"
       clip-path="url(#clipPath35)" />
    <path
       id="path36"
       d="m 0,0 c -0.004,0.568 -0.138,1.003 -0.401,1.304 -0.262,0.301 -0.633,0.452 -1.112,0.452 -0.435,0 -0.814,-0.16 -1.138,-0.477 C -2.973,0.96 -3.178,0.534 -3.269,0 Z m 1.276,-1.006 h -4.551 c 0.026,-0.663 0.217,-1.171 0.577,-1.525 0.358,-0.355 0.833,-0.532 1.423,-0.532 0.777,0 1.463,0.224 2.057,0.672 v -1.114 c -0.257,-0.18 -0.585,-0.323 -0.984,-0.43 -0.4,-0.106 -0.813,-0.16 -1.24,-0.16 -0.995,0 -1.766,0.297 -2.314,0.89 -0.546,0.594 -0.82,1.429 -0.82,2.506 0,0.663 0.133,1.26 0.401,1.792 0.266,0.532 0.639,0.947 1.114,1.246 0.477,0.299 1.006,0.449 1.587,0.449 0.85,0 1.521,-0.278 2.013,-0.833 C 1.03,1.399 1.276,0.628 1.276,-0.359 Z"
       style="fill:#ffffff;fill-opacity:1;fill-rule:nonzero;stroke:none"
       transform="matrix(0.35277776,0,0,-0.35277776,23.097696,6.08982)"
       clip-path="url(#clipPath37)" />
    <path
       id="path38"
       d="m 0,0 c -0.115,-0.068 -0.281,-0.122 -0.496,-0.164 -0.216,-0.04 -0.405,-0.06 -0.568,-0.06 -1.213,0 -1.819,0.671 -1.819,2.012 v 3.666 h -1.109 v 1.044 h 1.109 v 1.558 l 1.262,0.397 V 6.498 H 0 V 5.454 H -1.621 V 2.012 c 0,-0.435 0.071,-0.741 0.211,-0.916 0.142,-0.175 0.389,-0.263 0.743,-0.263 0.244,0 0.466,0.068 0.667,0.205 z"
       style="fill:#ffffff;fill-opacity:1;fill-rule:nonzero;stroke:none"
       transform="matrix(0.35277776,0,0,-0.35277776,25.285566,7.45536)"
       clip-path="url(#clipPath39)" />
    <path
       id="path40"
       d="m 476.194,261.803 h -1.263 v 6.562 h 1.263 z m 0.185,8.895 c 0,-0.209 -0.076,-0.39 -0.23,-0.541 -0.154,-0.152 -0.344,-0.228 -0.57,-0.228 -0.231,0 -0.422,0.074 -0.57,0.221 -0.15,0.147 -0.225,0.33 -0.225,0.548 0,0.227 0.079,0.412 0.237,0.557 0.158,0.146 0.344,0.218 0.558,0.218 0.213,0 0.399,-0.074 0.56,-0.224 0.161,-0.15 0.24,-0.333 0.24,-0.551"
       style="fill:#ffffff;fill-opacity:1;fill-rule:nonzero;stroke:none"
       transform="matrix(0.35277776,0,0,-0.35277776,-140.54913,99.836117)"
       clip-path="url(#clipPath41)" />
    <path
       id="path42"
       d="m 0,0 c -0.115,-0.068 -0.281,-0.122 -0.496,-0.164 -0.216,-0.04 -0.405,-0.06 -0.567,-0.06 -1.214,0 -1.82,0.671 -1.82,2.012 v 3.666 h -1.109 v 1.044 h 1.109 v 1.558 l 1.262,0.397 V 6.498 H 0 V 5.454 H -1.621 V 2.012 c 0,-0.435 0.071,-0.741 0.211,-0.916 0.142,-0.175 0.389,-0.263 0.743,-0.263 0.244,0 0.466,0.068 0.667,0.205 z"
       style="fill:#ffffff;fill-opacity:1;fill-rule:nonzero;stroke:none"
       transform="matrix(0.35277776,0,0,-0.35277776,29.387266,7.45536)"
       clip-path="url(#clipPath43)" />
    <path
       id="path44"
       d="m 0,0 c -0.205,0.111 -0.438,0.167 -0.698,0.167 -0.71,0 -1.064,-0.436 -1.064,-1.307 v -0.943 h 1.5 v -1.044 h -1.5 v -5.518 h -1.275 v 5.518 h -1.108 v 1.044 h 1.108 v 1.013 c 0,0.696 0.197,1.252 0.593,1.666 0.394,0.415 0.938,0.622 1.631,0.622 0.342,0 0.612,-0.039 0.813,-0.116 z"
       style="fill:#ffffff;fill-opacity:1;fill-rule:nonzero;stroke:none"
       transform="matrix(0.35277776,0,0,-0.35277776,32.315856,4.42817)"
       clip-path="url(#clipPath45)" />
    <path
       id="path46"
       d="m 0,0 c -0.077,0.06 -0.203,0.111 -0.379,0.154 -0.175,0.042 -0.326,0.064 -0.455,0.064 -0.448,0 -0.811,-0.202 -1.089,-0.605 -0.277,-0.405 -0.416,-0.927 -0.416,-1.568 v -3.351 h -1.263 v 6.562 h 1.263 v -1.313 h 0.026 c 0.144,0.448 0.367,0.798 0.666,1.051 0.299,0.251 0.643,0.377 1.032,0.377 0.264,0 0.47,-0.029 0.615,-0.089 z"
       style="fill:#ffffff;fill-opacity:1;fill-rule:nonzero;stroke:none"
       transform="matrix(0.35277776,0,0,-0.35277776,33.965726,5.60599)"
       clip-path="url(#clipPath47)" />
    <path
       id="path48"
       d="m 0,0 c 0,0.782 -0.171,1.375 -0.513,1.779 -0.342,0.403 -0.824,0.605 -1.449,0.605 -0.632,0 -1.128,-0.211 -1.487,-0.635 -0.358,-0.422 -0.538,-1.016 -0.538,-1.78 0,-0.74 0.181,-1.318 0.541,-1.735 0.362,-0.416 0.859,-0.624 1.491,-0.624 0.64,0 1.127,0.202 1.457,0.609 C -0.166,-1.375 0,-0.782 0,0 m 1.307,0.045 c 0,-1.064 -0.304,-1.911 -0.913,-2.541 -0.61,-0.63 -1.419,-0.945 -2.433,-0.945 -0.996,0 -1.787,0.305 -2.374,0.916 -0.587,0.611 -0.881,1.427 -0.881,2.448 0,1.09 0.304,1.949 0.913,2.577 0.609,0.627 1.441,0.941 2.496,0.941 0.988,0 1.766,-0.3 2.336,-0.903 C 1.022,1.936 1.307,1.105 1.307,0.045"
       style="fill:#ffffff;fill-opacity:1;fill-rule:nonzero;stroke:none"
       transform="matrix(0.35277776,0,0,-0.35277776,36.058786,6.32043)"
       clip-path="url(#clipPath49)" />
    <path
       id="path50"
       d="m 0,0 h -1.268 v 3.736 c 0,0.675 -0.105,1.165 -0.314,1.471 -0.21,0.306 -0.567,0.458 -1.071,0.458 -0.419,0 -0.773,-0.193 -1.064,-0.579 C -4.007,4.698 -4.153,4.24 -4.153,3.711 V 0 h -1.262 v 3.864 c 0,1.201 -0.463,1.801 -1.391,1.801 -0.44,0 -0.798,-0.183 -1.073,-0.551 C -8.155,4.746 -8.292,4.279 -8.292,3.711 V 0 h -1.264 v 6.562 h 1.264 V 5.537 h 0.025 c 0.47,0.791 1.156,1.186 2.057,1.186 0.424,0 0.803,-0.115 1.142,-0.346 0.337,-0.231 0.578,-0.558 0.724,-0.981 0.256,0.453 0.563,0.787 0.922,1.003 0.359,0.216 0.782,0.324 1.268,0.324 C -0.718,6.723 0,5.832 0,4.05 Z"
       style="fill:#ffffff;fill-opacity:1;fill-rule:nonzero;stroke:none"
       transform="matrix(0.35277776,0,0,-0.35277776,40.518576,7.47797)"
       clip-path="url(#clipPath51)" />
  </g>
</svg>
