<?xml version="1.0"?>
<!DOCTYPE svg PUBLIC "-//W3C//DTD SVG 1.0//EN" "http://www.w3.org/TR/2001/REC-SVG-20010904/DTD/svg10.dtd">
<svg xmlns="http://www.w3.org/2000/svg" xmlns:xlink="http://www.w3.org/1999/xlink" xmlns:sodipodi="http://sodipodi.sourceforge.net/DTD/sodipodi-0.dtd" xmlns:inkscape="http://www.inkscape.org/namespaces/inkscape" xmlns:realworld="http://www.rw-designer.com/export-svg" width="5768px" height="1624px">
  <defs>
    <linearGradient id="G0" gradientUnits="userSpaceOnUse" x1="-145081" x2="-145081" y1="-109035" y2="-108066">
      <stop offset="0%" stop-color="#ff1b2d" />
      <stop offset="29.9992%" stop-color="#ff1b2d" />
      <stop offset="43.8087%" stop-color="#fa1a2c" />
      <stop offset="59.3896%" stop-color="#ed1528" />
      <stop offset="75.8099%" stop-color="#d60e21" />
      <stop offset="92.7199%" stop-color="#b70519" />
      <stop offset="100%" stop-color="#a70014" />
    </linearGradient>
    <linearGradient id="G1" gradientUnits="userSpaceOnUse" x1="-144830" x2="-144830" y1="-108978" y2="-108121">
      <stop offset="0%" stop-color="#9c0000" />
      <stop offset="69.9992%" stop-color="#ff4b4b" />
      <stop offset="100%" stop-color="#ff4b4b" />
    </linearGradient>
  </defs>
  <g inkscape:groupmode="layer" inkscape:label="opera_Icon_full-color_red_rgb">
    <g inkscape:groupmode="layer" inkscape:label="layer 0">
      <rect fill="#fbfafa" height="1624" realworld:stroke-pos="-1" stroke="#d2cece" stroke-linejoin="round" stroke-width="20" width="5768" x="0" y="0" />
    </g>
    <g inkscape:groupmode="layer" inkscape:label="layer 1">
      <path d="M 1638.77 540.016C 1638.29 503.058 1651.19 471.854 1677.47 446.406C 1703.74 420.969 1735.23 408.49 1771.95 408.969C 1796.92 408.969 1819.43 414.489 1839.47 425.531C 1859.5 436.573 1874.32 451.573 1883.92 470.531L 1839.28 502.938C 1822.24 474.375 1799.44 460.094 1770.88 460.094C 1750.01 460.094 1732.49 467.651 1718.33 482.766C 1704.16 497.891 1697.08 516.974 1697.08 540.016C 1697.08 562.818 1704.04 581.838 1717.97 597.078C 1731.89 612.318 1748.44 619.938 1767.64 619.938C 1784.44 619.938 1798.42 615.615 1809.58 606.969C 1820.74 598.334 1827.51 587.058 1829.92 573.141L 1753.59 573.141L 1753.59 529.219L 1887.16 529.219L 1887.16 666L 1850.08 666L 1840 635.422C 1823.2 659.172 1797.88 671.047 1764.05 671.047C 1728.53 671.526 1698.65 659.167 1674.41 633.969C 1650.17 608.771 1638.29 577.453 1638.77 540.016 z M 1917.16 576.734C 1917.16 549.13 1926.21 526.51 1944.34 508.875C 1962.45 491.24 1985.2 482.422 2012.56 482.422C 2038.48 482.422 2059.6 490.938 2075.92 507.969C 2092.24 525.011 2100.41 546.255 2100.41 571.703L 2100.41 590.063L 1968.28 590.063C 1969.72 600.615 1974.4 609.068 1982.33 615.422C 1990.25 621.787 1999.85 624.969 2011.13 624.969C 2030.57 624.969 2045.68 615.61 2056.48 596.891L 2095.36 618.859C 2086.72 636.38 2075.5 649.459 2061.7 658.094C 2047.9 666.729 2030.31 671.047 2008.95 671.047C 1984.23 671.526 1962.64 662.651 1944.16 644.422C 1925.68 626.182 1916.68 603.619 1917.16 576.734 z M 1970.44 552.25L 2051.8 552.25C 2049.64 543.375 2044.97 536.474 2037.77 531.547C 2030.56 526.63 2021.79 524.172 2011.48 524.172C 2001.64 524.172 1993.12 526.692 1985.92 531.734C 1978.72 536.776 1973.56 543.615 1970.44 552.25 z M 2145.84 610.578L 2145.84 529.219L 2119.92 529.219L 2119.92 487.453L 2145.84 487.453L 2145.84 439.219L 2199.84 439.219L 2199.84 487.453L 2236.92 487.453L 2236.92 529.219L 2199.84 529.219L 2199.84 599.781C 2199.84 606.979 2201.65 612.615 2205.25 616.688C 2208.84 620.771 2213.64 622.813 2219.64 622.813C 2225.64 622.813 2231.28 621.855 2236.56 619.938L 2241.59 664.938C 2230.8 669.011 2218.8 671.047 2205.59 671.047C 2189.04 671.047 2174.89 666.25 2163.13 656.656C 2151.61 647.052 2145.84 631.693 2145.84 610.578 z M 2370.16 666L 2370.16 487.453L 2424.16 487.453L 2424.16 666C 2424.16 666 2370.16 666 2370.16 666 z M 2368 466.578L 2368 408.969L 2426.31 408.969L 2426.31 466.578C 2426.31 466.578 2368 466.578 2368 466.578 z M 2477.84 610.578L 2477.84 529.219L 2451.92 529.219L 2451.92 487.453L 2477.84 487.453L 2477.84 439.219L 2531.84 439.219L 2531.84 487.453L 2568.92 487.453L 2568.92 529.219L 2531.84 529.219L 2531.84 599.781C 2531.84 606.979 2533.65 612.615 2537.25 616.688C 2540.84 620.771 2545.64 622.813 2551.64 622.813C 2557.64 622.813 2563.28 621.855 2568.56 619.938L 2573.59 664.938C 2562.8 669.011 2550.8 671.047 2537.59 671.047C 2521.04 671.047 2506.89 666.25 2495.13 656.656C 2483.61 647.052 2477.84 631.693 2477.84 610.578 z M 2713.31 666L 2713.31 529.219L 2688.13 529.219L 2688.13 487.453L 2713.31 487.453L 2713.31 464.422C 2713.31 442.339 2719.8 425.416 2732.77 413.656C 2745.49 401.896 2761.92 396.016 2782.08 396.016C 2790.24 396.016 2798.75 397.698 2807.64 401.063L 2797.56 447.859C 2793.72 446.422 2789.51 445.703 2784.95 445.703C 2779.68 445.703 2775.43 447.562 2772.19 451.281C 2768.94 455 2767.31 459.74 2767.31 465.5L 2767.31 487.453L 2805.48 487.453L 2805.48 529.219L 2767.31 529.219L 2767.31 666C 2767.31 666 2713.31 666 2713.31 666 z M 2832.16 666L 2832.16 487.453L 2886.16 487.453L 2886.16 510.141C 2897.44 491.662 2914 482.422 2935.84 482.422C 2942.08 482.422 2947.73 483.261 2952.77 484.938L 2943.77 535.703C 2938.73 534.255 2933.8 533.531 2929 533.531C 2915.56 533.531 2905.06 538.151 2897.5 547.391C 2889.94 556.631 2886.16 569.172 2886.16 585.016L 2886.16 666C 2886.16 666 2832.16 666 2832.16 666 z M 2997.14 645.688C 2977.82 628.761 2968.16 605.776 2968.16 576.734C 2968.16 547.692 2977.82 524.714 2997.14 507.797C 3016.46 490.88 3039.81 482.422 3067.17 482.422C 3094.52 482.422 3117.87 490.88 3137.19 507.797C 3156.5 524.714 3166.16 547.692 3166.16 576.734C 3166.16 605.776 3156.5 628.755 3137.19 645.672C 3117.87 662.589 3094.52 671.047 3067.17 671.047C 3039.81 671.047 3016.46 662.594 2997.14 645.688 z M 3098.66 608.063C 3107.18 600.136 3111.44 589.692 3111.44 576.734C 3111.44 563.776 3107.18 553.333 3098.66 545.406C 3090.14 537.489 3079.64 533.531 3067.16 533.531C 3054.68 533.531 3044.18 537.489 3035.66 545.406C 3027.14 553.333 3022.88 563.776 3022.88 576.734C 3022.88 589.692 3027.14 600.13 3035.66 608.047C 3044.18 615.974 3054.68 619.938 3067.16 619.938C 3079.64 619.938 3090.14 615.98 3098.66 608.063 z M 3197.16 666L 3197.16 487.453L 3251.16 487.453L 3251.16 507.25C 3264.6 490.698 3282 482.422 3303.36 482.422C 3325.92 482.422 3342.37 491.422 3352.69 509.422C 3365.89 491.422 3384.6 482.422 3408.84 482.422C 3426.84 482.422 3441.06 488.303 3451.5 500.063C 3461.94 511.823 3467.16 527.542 3467.16 547.219L 3467.16 666L 3413.16 666L 3413.16 558.016C 3413.16 539.776 3404.63 530.656 3387.59 530.656C 3379.19 530.656 3372.36 533.656 3367.08 539.656C 3361.8 545.656 3359.16 554.057 3359.16 564.859L 3359.16 666L 3305.16 666L 3305.16 559.094C 3305.16 550.459 3302.94 543.558 3298.5 538.391C 3294.06 533.235 3287.77 530.656 3279.61 530.656C 3271.44 530.656 3264.67 533.713 3259.27 539.828C 3253.86 545.953 3251.16 554.297 3251.16 564.859L 3251.16 666C 3251.16 666 3197.16 666 3197.16 666 z" fill="#797979" fill-rule="evenodd" />
      <path d="M 1648.3 981.766C 1647.64 931.933 1664.97 889.276 1700.28 853.797C 1735.58 818.328 1778.97 800.922 1830.45 801.578C 1881.93 800.922 1925.33 818.328 1960.64 853.797C 1995.95 889.276 2013.28 931.933 2012.61 981.766C 2013.28 1031.6 1995.95 1074.25 1960.64 1109.72C 1925.33 1145.19 1881.93 1162.6 1830.45 1161.94C 1778.97 1162.6 1735.58 1145.19 1700.28 1109.72C 1664.97 1074.25 1647.64 1031.6 1648.3 981.766 z M 1903.22 1058.5C 1922.69 1039.02 1932.42 1013.44 1932.42 981.766C 1932.42 950.089 1922.69 924.51 1903.22 905.031C 1883.75 885.562 1859.49 875.828 1830.45 875.828C 1801.41 875.828 1777.16 885.562 1757.69 905.031C 1738.22 924.51 1728.48 950.089 1728.48 981.766C 1728.48 1013.44 1738.22 1039.01 1757.69 1058.48C 1777.16 1077.96 1801.41 1087.7 1830.45 1087.7C 1859.49 1087.7 1883.75 1077.97 1903.22 1058.5 z M 2060.72 1255.98L 2060.72 909.5L 2134.97 909.5L 2134.97 937.703C 2154.77 914.276 2181.84 902.563 2216.16 902.563C 2246.51 902.563 2272.91 914.276 2295.36 937.703C 2317.8 961.141 2329.02 992.656 2329.02 1032.25C 2329.02 1071.52 2317.55 1102.96 2294.61 1126.55C 2271.67 1150.14 2245.02 1161.94 2214.67 1161.94C 2181.99 1161.94 2155.43 1151.05 2134.97 1129.28L 2134.97 1255.98C 2134.97 1255.98 2060.72 1255.98 2060.72 1255.98 z M 2235.94 1076.31C 2247.83 1064.76 2253.77 1050.07 2253.77 1032.25C 2253.77 1014.44 2247.82 999.755 2235.95 988.203C 2224.06 976.651 2209.55 970.875 2192.39 970.875C 2175.23 970.875 2160.72 976.651 2148.84 988.203C 2136.95 999.755 2131.02 1014.44 2131.02 1032.25C 2131.02 1050.07 2136.95 1064.76 2148.84 1076.31C 2160.72 1087.86 2175.23 1093.64 2192.39 1093.64C 2209.55 1093.64 2224.06 1087.86 2235.94 1076.31 z M 2359.34 1032.25C 2359.34 994.302 2371.8 963.198 2396.72 938.938C 2421.64 914.688 2452.91 902.563 2490.52 902.563C 2526.17 902.563 2555.2 914.276 2577.64 937.703C 2600.08 961.141 2611.3 990.351 2611.3 1025.33L 2611.3 1050.58L 2429.64 1050.58C 2431.62 1065.09 2438.05 1076.71 2448.95 1085.45C 2459.84 1094.2 2473.04 1098.58 2488.55 1098.58C 2515.28 1098.58 2536.07 1085.71 2550.91 1059.97L 2604.38 1090.17C 2592.49 1114.26 2577.06 1132.26 2558.09 1144.13C 2539.11 1156.01 2514.94 1161.94 2485.56 1161.94C 2451.57 1162.6 2421.88 1150.38 2396.47 1125.31C 2371.06 1100.24 2358.68 1069.22 2359.34 1032.25 z M 2432.61 998.594L 2544.47 998.594C 2541.5 986.386 2535.07 976.896 2525.17 970.125C 2515.26 963.365 2503.22 959.984 2489.03 959.984C 2475.5 959.984 2463.79 963.448 2453.89 970.375C 2443.99 977.313 2436.9 986.719 2432.61 998.594 z M 2655.72 1155L 2655.72 909.5L 2729.97 909.5L 2729.97 940.688C 2745.48 915.271 2768.25 902.563 2798.28 902.563C 2806.86 902.563 2814.62 903.719 2821.55 906.031L 2809.17 975.828C 2802.24 973.849 2795.48 972.859 2788.88 972.859C 2770.4 972.859 2755.96 979.208 2745.56 991.906C 2735.16 1004.61 2729.97 1021.86 2729.97 1043.64L 2729.97 1155C 2729.97 1155 2655.72 1155 2655.72 1155 z M 2845.81 1083.23C 2845.81 1039.68 2877.82 1012.62 2941.84 1002.06L 3004.2 992.156L 3004.2 987.703C 3004.2 963.943 2991.5 952.063 2966.09 952.063C 2954.87 952.063 2945.81 954.042 2938.88 958C 2931.94 961.969 2928.47 967.417 2928.47 974.344C 2928.47 976.323 2928.64 977.807 2928.97 978.797L 2861.66 1001.56C 2859.01 991.987 2857.69 984.073 2857.69 977.813C 2857.69 955.698 2868 937.625 2888.63 923.594C 2909.25 909.573 2935.07 902.563 2966.09 902.563C 3041 902.563 3078.45 933.583 3078.45 995.625L 3078.45 1094.13C 3078.45 1118.22 3083.9 1138.51 3094.8 1155L 3019.56 1155C 3012.3 1147.75 3008.34 1137.19 3007.67 1123.33C 2989.52 1149.07 2964.45 1161.94 2932.44 1161.94C 2905.71 1161.94 2884.59 1154.76 2869.08 1140.41C 2853.57 1126.06 2845.81 1106.99 2845.81 1083.23 z M 3004.2 1044.63L 3004.2 1040.17L 2951.73 1049.08C 2929.29 1053.05 2918.08 1062.95 2918.08 1078.78C 2918.08 1086.04 2920.89 1092.14 2926.5 1097.09C 2932.1 1102.05 2939.2 1104.53 2947.78 1104.53C 2964.28 1104.53 2977.82 1098.59 2988.38 1086.7C 2998.93 1074.16 3004.2 1060.14 3004.2 1044.63 z M 3267.81 1083.23C 3267.81 1039.68 3299.82 1012.62 3363.84 1002.06L 3426.2 992.156L 3426.2 987.703C 3426.2 963.943 3413.5 952.063 3388.09 952.063C 3376.87 952.063 3367.81 954.042 3360.88 958C 3353.94 961.969 3350.47 967.417 3350.47 974.344C 3350.47 976.323 3350.64 977.807 3350.97 978.797L 3283.66 1001.56C 3281.01 991.987 3279.69 984.073 3279.69 977.813C 3279.69 955.698 3290 937.625 3310.63 923.594C 3331.25 909.573 3357.07 902.563 3388.09 902.563C 3463 902.563 3500.45 933.583 3500.45 995.625L 3500.45 1094.13C 3500.45 1118.22 3505.9 1138.51 3516.8 1155L 3441.56 1155C 3434.3 1147.75 3430.34 1137.19 3429.67 1123.33C 3411.52 1149.07 3386.45 1161.94 3354.44 1161.94C 3327.71 1161.94 3306.59 1154.76 3291.08 1140.41C 3275.57 1126.06 3267.81 1106.99 3267.81 1083.23 z M 3426.2 1044.63L 3426.2 1040.17L 3373.73 1049.08C 3351.29 1053.05 3340.08 1062.95 3340.08 1078.78C 3340.08 1086.04 3342.89 1092.14 3348.5 1097.09C 3354.1 1102.05 3361.2 1104.53 3369.78 1104.53C 3386.28 1104.53 3399.82 1098.59 3410.38 1086.7C 3420.93 1074.16 3426.2 1060.14 3426.2 1044.63 z M 3549.34 1032.25C 3549.34 993.969 3561.47 962.782 3585.73 938.688C 3609.98 914.605 3638.61 902.563 3671.61 902.563C 3704.61 902.563 3728.54 913.453 3743.39 935.234L 3743.39 808.516L 3817.64 808.516L 3817.64 1155L 3743.39 1155L 3743.39 1126.31C 3725.23 1150.06 3699.16 1161.94 3665.17 1161.94C 3635.14 1162.6 3608.17 1150.47 3584.25 1125.56C 3560.32 1100.64 3548.68 1069.54 3549.34 1032.25 z M 3729.77 1076.31C 3741.49 1064.76 3747.34 1050.07 3747.34 1032.25C 3747.34 1014.44 3741.49 999.755 3729.78 988.203C 3718.06 976.651 3703.46 970.875 3685.97 970.875C 3668.48 970.875 3653.88 976.651 3642.16 988.203C 3630.44 999.755 3624.58 1014.44 3624.58 1032.25C 3624.58 1050.07 3630.44 1064.76 3642.16 1076.31C 3653.88 1087.86 3668.48 1093.64 3685.97 1093.64C 3703.46 1093.64 3718.06 1087.86 3729.77 1076.31 z M 3860.34 1032.25C 3860.34 993.969 3872.47 962.782 3896.73 938.688C 3920.98 914.605 3949.61 902.563 3982.61 902.563C 4015.61 902.563 4039.54 913.453 4054.39 935.234L 4054.39 808.516L 4128.64 808.516L 4128.64 1155L 4054.39 1155L 4054.39 1126.31C 4036.23 1150.06 4010.16 1161.94 3976.17 1161.94C 3946.14 1162.6 3919.17 1150.47 3895.25 1125.56C 3871.32 1100.64 3859.68 1069.54 3860.34 1032.25 z M 4040.77 1076.31C 4052.49 1064.76 4058.34 1050.07 4058.34 1032.25C 4058.34 1014.44 4052.49 999.755 4040.78 988.203C 4029.06 976.651 4014.46 970.875 3996.97 970.875C 3979.48 970.875 3964.88 976.651 3953.16 988.203C 3941.44 999.755 3935.58 1014.44 3935.58 1032.25C 3935.58 1050.07 3941.44 1064.76 3953.16 1076.31C 3964.88 1087.86 3979.48 1093.64 3996.97 1093.64C 4014.46 1093.64 4029.06 1087.86 4040.77 1076.31 z M 4173.81 1031.27L 4173.81 970.875L 4377.77 970.875L 4377.77 1031.27C 4377.77 1031.27 4173.81 1031.27 4173.81 1031.27 z M 4451.19 1127.06C 4424.63 1103.79 4411.34 1072.19 4411.34 1032.25C 4411.34 992.323 4424.63 960.724 4451.2 937.453C 4477.76 914.193 4509.85 902.563 4547.48 902.563C 4585.09 902.563 4617.19 914.193 4643.75 937.453C 4670.31 960.724 4683.59 992.323 4683.59 1032.25C 4683.59 1072.19 4670.31 1103.79 4643.75 1127.05C 4617.19 1150.31 4585.09 1161.94 4547.48 1161.94C 4509.85 1161.94 4477.76 1150.31 4451.19 1127.06 z M 4590.78 1075.33C 4602.5 1064.43 4608.36 1050.07 4608.36 1032.25C 4608.36 1014.44 4602.5 1000.08 4590.78 989.188C 4579.06 978.303 4564.63 972.859 4547.47 972.859C 4530.31 972.859 4515.88 978.303 4504.16 989.188C 4492.44 1000.08 4486.58 1014.44 4486.58 1032.25C 4486.58 1050.07 4492.44 1064.42 4504.16 1075.31C 4515.88 1086.21 4530.31 1091.66 4547.47 1091.66C 4564.63 1091.66 4579.06 1086.22 4590.78 1075.33 z M 4726.72 1155L 4726.72 909.5L 4800.97 909.5L 4800.97 944.641C 4820.77 916.589 4847.34 902.563 4880.67 902.563C 4907.72 902.563 4929.09 910.318 4944.77 925.828C 4960.45 941.338 4968.28 961.963 4968.28 987.703L 4968.28 1155L 4894.03 1155L 4894.03 1021.36C 4894.03 989.027 4879.51 972.859 4850.47 972.859C 4835.29 972.859 4823.25 978.63 4814.34 990.172C 4805.42 1001.72 4800.97 1017.23 4800.97 1036.7L 4800.97 1155C 4800.97 1155 4726.72 1155 4726.72 1155 z M 5013.81 1085.22L 5070.75 1050.08C 5084.28 1084.4 5104.91 1101.56 5132.63 1101.56C 5141.87 1101.56 5149.38 1099.83 5155.16 1096.36C 5160.93 1092.89 5163.81 1088.19 5163.81 1082.25C 5163.81 1075.32 5160.18 1069.71 5152.92 1065.42C 5145.66 1061.13 5133.61 1057.33 5116.78 1054.03C 5090.05 1048.75 5069.01 1039.42 5053.67 1026.06C 5038.33 1012.7 5030.66 995.786 5030.66 975.328C 5030.66 952.891 5039.57 935.234 5057.38 922.359C 5074.87 909.161 5096.97 902.563 5123.7 902.563C 5150.11 902.563 5171.39 907.51 5187.56 917.406C 5203.73 927.312 5217.43 943.323 5228.66 965.438L 5175.19 996.609C 5165.62 968.89 5148.78 955.031 5124.7 955.031C 5105.55 955.031 5095.98 960.64 5095.98 971.859C 5095.98 977.807 5100.11 982.844 5108.36 986.969C 5116.61 991.094 5129.97 995.297 5148.45 999.578C 5177.83 1006.18 5199.11 1015.68 5212.31 1028.05C 5225.51 1040.43 5232.11 1057.18 5232.11 1078.3C 5232.11 1102.38 5222.71 1122.35 5203.91 1138.19C 5185.1 1154.02 5161 1161.94 5131.63 1161.94C 5075.54 1161.94 5036.26 1136.37 5013.81 1085.22 z" fill="#191919" fill-rule="evenodd" />
    </g>
    <g>
      <path d="M 647.719 1094.01C 592.419 1028.71 556.619 932.314 554.219 824.014C 554.219 823.714 554.219 800.714 554.219 800.414C 556.619 692.114 592.419 595.714 647.719 530.414C 719.519 437.314 826.119 378.214 945.119 378.214C 1018.32 378.214 1086.92 400.614 1145.52 439.514C 1057.52 360.714 941.519 312.714 814.219 312.214C 813.619 312.214 812.919 312.214 812.319 312.214C 536.219 312.214 312.318 536.114 312.318 812.214C 312.318 1080.41 523.419 1299.21 788.519 1311.61C 796.419 1312.01 804.319 1312.21 812.319 1312.21C 940.319 1312.21 1057.12 1264.11 1145.52 1185.01C 1086.92 1223.81 1018.42 1246.21 945.119 1246.21C 826.119 1246.21 719.519 1187.11 647.719 1094.01 z" fill="url(#G0)" fill-rule="evenodd" />
      <path d="M 647.719 530.414C 693.619 476.214 752.819 443.614 817.619 443.614C 963.219 443.614 1081.12 608.614 1081.12 812.214C 1081.12 1015.81 963.119 1180.81 817.619 1180.81C 752.919 1180.81 693.619 1148.11 647.719 1094.01C 719.519 1187.11 826.119 1246.21 945.119 1246.21C 1018.32 1246.21 1086.92 1223.81 1145.52 1185.01C 1247.92 1093.41 1312.32 960.314 1312.32 812.214C 1312.32 664.114 1247.92 531.014 1145.52 439.514C 1086.92 400.614 1018.42 378.214 945.119 378.214C 826.119 378.214 719.519 437.314 647.719 530.414 z" fill="url(#G1)" fill-rule="evenodd" />
    </g>
  </g>
</svg>
